<?xml version="1.0" encoding="UTF-8"?>
<!-- Generator: https://ezgif.com/png-to-svg -->
<svg version="1.1" xmlns="http://www.w3.org/2000/svg" width="350" height="350">
<path d="M0 0 C4.01 1.1 6.4 4.05 9.11 7.06 C9.72 7.71 10.33 8.35 10.96 9.02 C12.68 10.85 14.37 12.7 16.05 14.56 C16.72 15.3 17.39 16.05 18.08 16.81 C19.14 18.02 20.18 19.23 21.21 20.46 C22.71 22.18 24.25 23.81 25.85 25.44 C36.51 36.4 43.26 47.58 47.05 62.56 C50.31 62.56 51.81 60.09 54.05 57.89 C54.71 57.22 55.37 56.56 56.05 55.87 C56.72 55.2 57.39 54.53 58.08 53.84 C63.25 48.58 67.73 43.07 71.99 37.07 C73.97 34.65 75.11 33.53 78.05 32.56 C81.33 32.7 83.36 33.08 86.06 34.98 C89.04 38.86 89.71 43.03 90.73 47.75 C90.94 48.66 91.16 49.56 91.38 50.5 C93.64 60.46 94.19 69.92 94.11 80.12 C94.1 81.23 94.1 82.33 94.09 83.47 C94.08 86.17 94.07 88.86 94.05 91.56 C108.73 83.37 108.73 83.37 122.41 73.65 C126.22 70.74 129.26 69.73 134.05 69.56 C136.85 71.33 138.56 72.59 140.05 75.56 C142.63 108.42 130.69 140.41 110.05 165.56 C109.04 166.89 108.03 168.22 107.05 169.56 C107.92 169.71 107.92 169.71 108.8 169.86 C117.1 171.45 122.03 174.83 127.05 181.56 C129.85 189.97 127.46 199.24 125.8 207.69 C125.49 209.38 125.49 209.38 125.17 211.1 C123.71 218.71 122.09 226.05 116.17 231.5 C112.96 233.62 110.85 234.29 107.05 234.56 C107 235.27 106.95 235.98 106.89 236.71 C106.3 244.57 105.3 252.33 104.12 260.13 C103.93 261.4 103.74 262.67 103.55 263.98 C103.05 267.35 102.54 270.72 102.04 274.09 C101.44 278.08 100.85 282.08 100.25 286.07 C99.76 289.36 99.27 292.65 98.78 295.93 C97.81 302.37 96.86 308.81 95.97 315.26 C95.79 316.49 95.62 317.71 95.44 318.97 C95.12 321.27 94.8 323.56 94.49 325.86 C93.27 334.42 92.01 341.76 85.05 347.56 C81.01 350.46 78.21 350.94 73.27 350.95 C72.6 350.96 71.93 350.97 71.25 350.97 C69.01 350.99 66.78 350.99 64.55 350.98 C62.95 350.99 61.34 351 59.74 351.01 C55.39 351.03 51.04 351.03 46.69 351.03 C43.05 351.03 39.41 351.04 35.78 351.05 C27.2 351.07 18.62 351.07 10.04 351.06 C1.2 351.05 -7.65 351.08 -16.49 351.11 C-24.09 351.15 -31.69 351.16 -39.28 351.15 C-43.82 351.15 -48.35 351.16 -52.89 351.18 C-57.16 351.2 -61.42 351.2 -65.69 351.18 C-67.25 351.18 -68.82 351.18 -70.38 351.2 C-86.01 351.33 -86.01 351.33 -91.95 345.56 C-95.96 340.21 -96.9 335.07 -97.85 328.54 C-98 327.52 -98.16 326.5 -98.33 325.44 C-98.88 321.82 -99.42 318.19 -99.95 314.56 C-100.28 312.37 -100.62 310.17 -100.95 307.98 C-102.31 298.98 -103.64 289.98 -104.96 280.98 C-105.59 276.67 -106.22 272.37 -106.86 268.06 C-107.35 264.71 -107.85 261.36 -108.34 258.01 C-108.57 256.42 -108.8 254.83 -109.04 253.25 C-109.37 251.04 -109.69 248.84 -110.01 246.63 C-110.19 245.38 -110.38 244.13 -110.56 242.85 C-110.9 240.04 -111.04 237.38 -110.95 234.56 C-111.8 234.52 -112.65 234.48 -113.52 234.44 C-118.22 233.24 -120.89 231.3 -123.95 227.56 C-127.78 220.91 -128.79 212.95 -130.2 205.5 C-130.38 204.58 -130.56 203.65 -130.74 202.71 C-133.53 186.89 -133.53 186.89 -130.33 180.75 C-125.05 173.66 -119.6 170.94 -110.95 169.56 C-111.78 168.55 -112.6 167.55 -113.45 166.51 C-132.47 142.75 -144.01 114.79 -144.45 84.06 C-144.47 83.28 -144.49 82.49 -144.51 81.69 C-144.47 77.99 -144.08 75.77 -142.12 72.6 C-139.95 70.56 -139.95 70.56 -136.77 69.37 C-131.19 69.65 -128.35 72.3 -123.95 75.56 C-121.51 77.25 -119.05 78.91 -116.58 80.56 C-115.94 80.99 -115.3 81.42 -114.64 81.86 C-109.25 85.44 -103.69 88.59 -97.95 91.56 C-97.97 90.93 -97.99 90.31 -98 89.66 C-98.31 75.62 -97.81 62.32 -94.95 48.56 C-94.74 47.42 -94.52 46.29 -94.3 45.12 C-93.33 40.79 -92.39 37.44 -89.14 34.31 C-85.95 32.56 -85.95 32.56 -82.89 32.44 C-77.19 34.62 -73.68 40 -69.89 44.62 C-64.3 51.34 -58.23 57.48 -51.95 63.56 C-51.55 62.34 -51.15 61.12 -50.74 59.86 C-45.36 44.04 -37.95 33.03 -25.96 21.49 C-23.6 19.22 -21.39 16.87 -19.27 14.37 C-18.17 13.1 -17.06 11.83 -15.95 10.56 C-15.18 9.67 -14.4 8.77 -13.6 7.85 C-12.74 6.93 -11.89 6.01 -11.02 5.06 C-10.25 4.2 -9.47 3.35 -8.68 2.47 C-5.72 0.4 -3.62 -0.22 0 0 Z " fill="#A0CB62" transform="translate(176.954833984375,-0.560546875)"/>
<path d="M0 0 C71.94 0 143.88 0 218 0 C216.88 13.5 216.88 13.5 216.12 18.53 C215.96 19.67 215.79 20.8 215.62 21.97 C215.35 23.75 215.35 23.75 215.07 25.57 C214.89 26.84 214.7 28.11 214.5 29.42 C214 32.79 213.5 36.16 212.99 39.53 C212.39 43.52 211.8 47.52 211.21 51.51 C210.72 54.8 210.23 58.09 209.73 61.37 C208.77 67.81 207.82 74.25 206.92 80.7 C206.75 81.93 206.57 83.15 206.4 84.41 C206.07 86.71 205.76 89 205.45 91.3 C204.23 99.86 202.96 107.2 196 113 C191.97 115.9 189.16 116.38 184.23 116.39 C183.56 116.4 182.89 116.41 182.2 116.41 C179.97 116.43 177.74 116.42 175.5 116.42 C173.9 116.43 172.3 116.44 170.69 116.45 C166.34 116.47 161.99 116.47 157.64 116.47 C154 116.47 150.37 116.48 146.73 116.49 C138.15 116.5 129.57 116.51 120.99 116.5 C112.15 116.49 103.31 116.52 94.47 116.55 C86.87 116.59 79.27 116.6 71.67 116.59 C67.14 116.59 62.6 116.6 58.07 116.62 C53.8 116.64 49.53 116.64 45.26 116.62 C43.7 116.62 42.14 116.62 40.58 116.64 C24.94 116.77 24.94 116.77 19 111 C15 105.65 14.05 100.5 13.11 93.98 C12.95 92.96 12.79 91.94 12.63 90.88 C12.07 87.26 11.54 83.63 11 80 C10.67 77.81 10.34 75.61 10.01 73.42 C8.64 64.42 7.32 55.42 6 46.42 C5.37 42.11 4.73 37.81 4.1 33.5 C3.6 30.15 3.11 26.8 2.62 23.45 C2.38 21.86 2.15 20.27 1.91 18.68 C1.59 16.48 1.27 14.28 0.95 12.07 C0.76 10.82 0.58 9.57 0.39 8.29 C0 5 0 5 0 0 Z " fill="#DA745B" transform="translate(66,234)"/>
<path d="M0 0 C0.94 -0 1.88 -0.01 2.84 -0.01 C5.99 -0.03 9.13 -0.02 12.27 -0.02 C14.53 -0.03 16.78 -0.04 19.04 -0.04 C25.16 -0.06 31.28 -0.07 37.41 -0.07 C42.52 -0.07 47.63 -0.08 52.74 -0.08 C64.12 -0.1 75.49 -0.1 86.86 -0.1 C87.54 -0.1 88.22 -0.1 88.93 -0.1 C89.61 -0.1 90.29 -0.1 90.99 -0.1 C102.06 -0.1 113.12 -0.12 124.19 -0.15 C135.56 -0.18 146.93 -0.19 158.29 -0.19 C164.67 -0.19 171.05 -0.2 177.43 -0.22 C183.43 -0.24 189.43 -0.24 195.44 -0.22 C197.64 -0.22 199.84 -0.22 202.04 -0.24 C205.05 -0.25 208.05 -0.24 211.06 -0.23 C211.93 -0.24 212.8 -0.25 213.69 -0.26 C220.42 -0.18 225.69 1.59 230.78 6.08 C231.23 6.66 231.69 7.24 232.16 7.83 C232.63 8.41 233.1 8.99 233.59 9.58 C238.73 17.24 235.1 29.11 233.47 37.39 C233.16 39.08 233.16 39.08 232.85 40.81 C231.02 50.3 228.8 57.47 220.72 63.27 C217.38 64.94 213.62 64.42 209.94 64.41 C208.56 64.42 208.56 64.42 207.15 64.43 C204.05 64.44 200.95 64.44 197.84 64.44 C195.63 64.45 193.41 64.46 191.19 64.46 C185.15 64.48 179.12 64.49 173.08 64.5 C169.31 64.51 165.54 64.51 161.77 64.52 C151.34 64.53 140.9 64.55 130.47 64.56 C127.76 64.56 125.05 64.56 122.34 64.56 C121.67 64.56 121 64.56 120.3 64.56 C109.4 64.57 98.49 64.6 87.59 64.63 C76.39 64.66 65.2 64.68 54.01 64.68 C47.72 64.69 41.43 64.7 35.15 64.72 C29.24 64.74 23.32 64.75 17.41 64.74 C15.24 64.74 13.07 64.74 10.9 64.76 C7.93 64.78 4.97 64.77 2.01 64.76 C1.15 64.77 0.29 64.78 -0.6 64.79 C-7.14 64.72 -10.78 62.77 -15.47 58.08 C-19.83 51.31 -21.07 43.14 -22.47 35.33 C-22.64 34.41 -22.82 33.48 -23 32.53 C-25.88 16.66 -25.88 16.66 -22.65 10.45 C-16.4 2.07 -10.12 -0.04 0 0 Z " fill="#FEF5F0" transform="translate(69.27912902832031,169.73257446289063)"/>
<path d="M0 0 C2.84 1.59 5.36 3.52 7.94 5.5 C15.97 11.43 24.22 16.25 33 21 C33 14.4 33 7.8 33 1 C38 2 38 2 40 3 C39.72 4.26 39.45 5.52 39.16 6.81 C36.86 17.59 35.31 27.97 35 39 C35.99 39 36.98 39 38 39 C38.5 40.98 38.5 40.98 39 43 C39.66 43 40.32 43 41 43 C41 43.66 41 44.32 41 45 C41.99 45.33 42.98 45.66 44 46 C44 47.32 44 48.64 44 50 C47.3 50 50.6 50 54 50 C54.33 50.66 54.66 51.32 55 52 C54.5 52.99 54.5 52.99 54 54 C56.64 53.34 59.28 52.68 62 52 C61.5 50.76 61.01 49.53 60.5 48.25 C59.24 45.1 59 43.55 59 40 C59.66 40 60.32 40 61 40 C61 40.66 61 41.32 61 42 C67.6 41.01 74.2 40.02 81 39 C79.16 44.53 76.94 49.54 74.44 54.78 C72.36 59.44 70.84 63.79 70.38 68.88 C70.3 69.66 70.23 70.44 70.15 71.24 C70.07 72.11 70.07 72.11 70 73 C77.55 72.05 85.04 71.07 92.49 69.5 C101.93 67.61 111.39 66.6 121 66 C121 65.34 121 64.68 121 64 C122.11 63.9 123.23 63.79 124.38 63.69 C125.57 63.46 126.77 63.23 128 63 C128.66 62.01 129.32 61.02 130 60 C133.01 59.89 135.76 59.95 138.75 60.19 C139.95 60.25 139.95 60.25 141.17 60.32 C145.77 60.63 149.65 61.39 154 63 C158.76 64.28 163.49 64.15 168.38 64.12 C169.2 64.13 170.03 64.13 170.88 64.14 C175.69 64.13 180.25 63.81 185 63 C184.4 57.32 182.91 52.39 181 47 C185.95 47 190.9 47 196 47 C195.67 50.63 195.34 54.26 195 58 C196.32 58 197.64 58 199 58 C199 58.66 199 59.32 199 60 C205.32 62.15 211.68 63.55 217.94 60.62 C221.48 57.84 222.37 56.44 223 52 C223.24 49.23 223.41 46.46 223.56 43.69 C223.61 42.95 223.65 42.21 223.69 41.44 C223.8 39.63 223.9 37.81 224 36 C224.75 36.2 225.5 36.41 226.27 36.62 C227.25 36.89 228.24 37.16 229.25 37.44 C230.22 37.7 231.2 37.97 232.2 38.25 C234.46 38.86 236.73 39.44 239 40 C237.94 43.89 236.24 45.82 233.31 48.44 C230.33 51.23 230.33 51.23 229.75 55.31 C230.77 58.21 230.77 58.21 233.56 59.38 C234.37 59.58 235.17 59.79 236 60 C236 60.99 236 61.98 236 63 C237.32 63 238.64 63 240 63 C240 62.34 240 61.68 240 61 C240.66 61.33 241.33 61.65 242.01 61.99 C245.66 63.22 249.01 63.22 252.81 63.12 C253.51 63.12 254.2 63.11 254.91 63.1 C256.61 63.07 258.3 63.04 260 63 C258.54 67.95 256.46 72.22 253.94 76.69 C253.54 77.39 253.15 78.09 252.74 78.81 C249.11 85.1 244.92 90.64 240 96 C239.31 96.86 238.62 97.72 237.91 98.61 C234.1 101.74 231.03 101.69 226.31 101.6 C225 101.61 225 101.61 223.66 101.61 C220.74 101.62 217.81 101.59 214.88 101.57 C212.78 101.57 210.68 101.57 208.58 101.57 C202.88 101.57 197.18 101.54 191.48 101.51 C185.53 101.48 179.57 101.47 173.61 101.47 C162.33 101.45 151.05 101.41 139.77 101.36 C126.93 101.3 114.09 101.28 101.25 101.25 C74.83 101.2 48.42 101.11 22 101 C22 100.34 22 99.68 22 99 C21.34 99 20.68 99 20 99 C-1.66 77.39 -13.06 43.6 -13.5 13.5 C-13.52 12.72 -13.54 11.93 -13.56 11.13 C-13.51 7.38 -13.13 5.21 -11.09 2.03 C-7.29 -1.65 -5.09 -1.19 0 0 Z " fill="#5C9C41" transform="translate(46,70)"/>
<path d="M0 0 C0.7 0 1.4 0 2.12 0 C4.32 0.01 6.52 0.02 8.72 0.04 C10.22 0.04 11.73 0.04 13.23 0.05 C16.9 0.06 20.56 0.08 24.22 0.1 C23.61 8.69 22.58 17.15 21.29 25.66 C21.1 26.94 20.92 28.21 20.72 29.52 C20.22 32.89 19.72 36.26 19.21 39.63 C18.61 43.62 18.02 47.62 17.43 51.61 C16.94 54.9 16.45 58.18 15.95 61.47 C14.98 67.91 14.04 74.35 13.14 80.8 C12.97 82.02 12.79 83.25 12.61 84.51 C12.29 86.8 11.97 89.1 11.67 91.39 C10.45 99.96 9.18 107.3 2.22 113.1 C-1.81 116 -4.62 116.48 -9.55 116.49 C-10.22 116.5 -10.89 116.5 -11.58 116.51 C-13.81 116.53 -16.04 116.52 -18.28 116.52 C-19.88 116.52 -21.48 116.53 -23.09 116.54 C-27.44 116.57 -31.79 116.57 -36.14 116.57 C-39.78 116.57 -43.41 116.57 -47.05 116.58 C-55.63 116.6 -64.21 116.61 -72.79 116.6 C-81.63 116.59 -90.47 116.61 -99.32 116.65 C-106.91 116.68 -114.51 116.69 -122.11 116.69 C-126.65 116.69 -131.18 116.69 -135.72 116.72 C-139.98 116.74 -144.25 116.74 -148.52 116.72 C-150.08 116.71 -151.64 116.72 -153.21 116.73 C-168.67 116.87 -168.67 116.87 -174.78 111.1 C-177.79 107.43 -178.11 104.78 -177.78 100.1 C-176.08 99.88 -176.08 99.88 -174.34 99.66 C-170.97 99.49 -170.97 99.49 -169.78 98.1 C-167.84 97.96 -165.89 97.89 -163.95 97.85 C-162.73 97.82 -161.52 97.79 -160.28 97.75 C-157.74 97.69 -155.19 97.63 -152.65 97.58 C-146.06 97.4 -139.84 96.88 -133.38 95.59 C-122.26 93.49 -110.71 93.8 -99.43 93.62 C-97.1 93.58 -94.77 93.53 -92.44 93.48 C-91.38 93.46 -91.38 93.46 -90.29 93.45 C-86.59 93.36 -83.97 92.99 -80.78 91.1 C-78.24 90.72 -78.24 90.72 -75.59 90.54 C-72.38 90.55 -72.38 90.55 -69.78 89.1 C-67.91 89 -66.04 88.97 -64.17 88.96 C-63.02 88.94 -61.88 88.92 -60.7 88.9 C-58.27 88.86 -55.84 88.85 -53.41 88.84 C-46.38 88.97 -46.38 88.97 -40.5 85.7 C-38.97 83.38 -38.09 81.84 -37.78 79.1 C-36.46 79.76 -35.14 80.42 -33.78 81.1 C-33.78 84.86 -34.02 86.01 -35.78 89.1 C-30.04 88.6 -30.04 88.6 -25.78 85.1 C-24.79 85.1 -23.8 85.1 -22.78 85.1 C-21.79 81.8 -20.8 78.5 -19.78 75.1 C-21.43 76.42 -23.08 77.74 -24.78 79.1 C-24.76 78.41 -24.73 77.72 -24.71 77.02 C-24.69 76.11 -24.67 75.21 -24.66 74.29 C-24.63 73.39 -24.61 72.5 -24.59 71.58 C-24.6 68.84 -24.6 68.84 -26.78 66.1 C-26.31 65.31 -25.83 64.53 -25.34 63.72 C-24.44 62.21 -23.57 60.67 -22.78 59.1 C-22.12 59.1 -21.46 59.1 -20.78 59.1 C-19.27 55.71 -19.27 55.71 -18.78 52.1 C-21.26 55.56 -21.26 55.56 -23.78 59.1 C-24.77 57.12 -24.77 57.12 -25.78 55.1 C-26.44 55.1 -27.1 55.1 -27.78 55.1 C-26.22 51.26 -23.76 48.93 -20.78 46.1 C-17.9 43.38 -17.9 43.38 -15.78 40.1 C-17.1 40.76 -18.42 41.42 -19.78 42.1 C-21.26 39.2 -21.92 37.71 -21.17 34.49 C-20.8 33.64 -20.42 32.79 -20.03 31.91 C-19.67 31.05 -19.3 30.19 -18.92 29.3 C-17.78 27.1 -17.78 27.1 -15.78 25.1 C-15.08 22.77 -14.42 20.44 -13.78 18.1 C-13.19 16.83 -13.19 16.83 -12.59 15.54 C-11.55 12.41 -12.17 10.3 -12.78 7.1 C-12.34 4.72 -12.34 4.72 -11.78 3.1 C-13.76 2.11 -13.76 2.11 -15.78 1.1 C-10.47 0.35 -5.38 -0.02 0 0 Z M-26.78 55.1 C-26.78 56.09 -26.78 57.08 -26.78 58.1 C-27.77 58.59 -27.77 58.59 -28.78 59.1 C-28.12 57.78 -27.46 56.46 -26.78 55.1 Z M-29.78 68.1 C-28.79 68.59 -28.79 68.59 -27.78 69.1 C-28.77 69.59 -28.77 69.59 -29.78 70.1 C-29.78 69.44 -29.78 68.78 -29.78 68.1 Z " fill="#A44C36" transform="translate(259.78125,233.90234375)"/>
<path d="M0 0 C0.99 0.33 1.98 0.66 3 1 C4.42 1.09 5.85 1.12 7.27 1.12 C8.15 1.13 9.03 1.13 9.93 1.13 C10.89 1.13 11.86 1.12 12.85 1.12 C14.39 1.12 14.39 1.12 15.95 1.12 C19.4 1.12 22.84 1.12 26.29 1.11 C28.75 1.11 31.22 1.11 33.68 1.11 C38.99 1.11 44.3 1.11 49.62 1.11 C57.3 1.1 64.98 1.09 72.66 1.09 C85.12 1.09 97.58 1.08 110.04 1.08 C122.14 1.07 134.25 1.06 146.35 1.05 C147.47 1.05 147.47 1.05 148.61 1.05 C152.36 1.05 156.1 1.05 159.84 1.05 C190.89 1.04 221.95 1.02 253 1 C252.88 2.58 252.74 4.15 252.61 5.73 C252.53 6.61 252.46 7.49 252.38 8.39 C251.56 13.97 249.15 18.28 244.88 21.94 C240.22 25.28 236.81 25.15 231.22 25.15 C229.84 25.15 229.84 25.15 228.43 25.16 C225.33 25.17 222.23 25.17 219.12 25.18 C216.9 25.18 214.69 25.19 212.47 25.2 C206.43 25.21 200.4 25.22 194.36 25.23 C190.59 25.24 186.82 25.24 183.05 25.25 C172.62 25.27 162.18 25.28 151.75 25.29 C149.04 25.29 146.33 25.29 143.62 25.3 C142.95 25.3 142.27 25.3 141.58 25.3 C130.68 25.3 119.77 25.33 108.87 25.36 C97.67 25.4 86.48 25.41 75.28 25.42 C69 25.42 62.71 25.43 56.43 25.45 C50.51 25.48 44.6 25.48 38.69 25.47 C36.52 25.47 34.35 25.48 32.18 25.49 C29.21 25.51 26.25 25.5 23.29 25.49 C22.43 25.5 21.57 25.51 20.68 25.52 C14.14 25.45 10.5 23.5 5.81 18.81 C2.11 13.07 0.72 6.72 0 0 Z " fill="#FEE0D1" transform="translate(48,209)"/>
<path d="M0 0 C0.99 3.96 1.98 7.92 3 12 C8.72 13.14 8.51 12.82 13 10 C15.01 9.39 17.03 8.93 19.08 8.47 C21.18 8.01 21.18 8.01 23.75 6.88 C26 6 26 6 30 6 C30.33 5.34 30.66 4.68 31 4 C31.03 4.6 31.05 5.2 31.08 5.82 C31.19 8.53 31.31 11.23 31.44 13.94 C31.48 14.88 31.52 15.83 31.56 16.8 C31.6 17.7 31.64 18.6 31.68 19.53 C31.74 20.78 31.74 20.78 31.79 22.05 C31.79 24 31.79 24 33 25 C34.65 24.81 36.3 24.55 37.93 24.26 C38.97 24.08 40 23.9 41.06 23.72 C42.18 23.52 43.29 23.33 44.44 23.12 C53.74 21.56 62.84 20.48 72.26 20.18 C75.9 20 79.4 19.53 83 19 C85.68 18.89 88.32 18.95 91 19 C91.33 14.05 91.66 9.1 92 4 C95.96 4 99.92 4 104 4 C104 4.66 104 5.32 104 6 C105.28 5.95 105.28 5.95 106.58 5.89 C109.79 5.76 113 5.64 116.21 5.52 C117.59 5.47 118.97 5.41 120.35 5.35 C143.57 4.38 143.57 4.38 151 9 C151.33 7.02 151.66 5.04 152 3 C152.77 3.3 153.54 3.6 154.33 3.9 C159.07 5.32 163.79 5.93 168.69 6.56 C170.57 6.81 172.45 7.06 174.32 7.32 C175.15 7.42 175.98 7.53 176.83 7.64 C179 8 179 8 182 9 C182.99 6.36 183.98 3.72 185 1 C185.33 1.99 185.66 2.98 186 4 C187.18 4.12 187.18 4.12 188.38 4.25 C196.57 5.95 203.83 9.78 211 14 C210.46 18.05 209.31 20.34 206.75 23.5 C206.17 24.23 205.58 24.96 204.98 25.72 C204.33 26.47 203.67 27.22 203 28 C201.97 29.29 201.97 29.29 200.92 30.6 C197.1 33.74 194.03 33.69 189.31 33.6 C188 33.61 188 33.61 186.66 33.61 C183.74 33.62 180.81 33.59 177.88 33.57 C175.78 33.57 173.68 33.57 171.58 33.57 C165.88 33.57 160.18 33.54 154.48 33.51 C148.53 33.48 142.57 33.47 136.61 33.47 C125.33 33.45 114.05 33.41 102.77 33.36 C89.93 33.3 77.09 33.28 64.25 33.25 C37.83 33.2 11.42 33.11 -15 33 C-15 32.34 -15 31.68 -15 31 C-15.66 31 -16.32 31 -17 31 C-18.42 29.44 -18.42 29.44 -20.04 27.28 C-20.62 26.51 -21.2 25.75 -21.8 24.96 C-22.4 24.15 -23 23.34 -23.62 22.5 C-24.24 21.69 -24.85 20.88 -25.48 20.04 C-26.99 18.03 -28.5 16.02 -30 14 C-26.34 10.03 -26.34 10.03 -23.25 9.75 C-22.51 9.83 -21.77 9.91 -21 10 C-21 9.34 -21 8.68 -21 8 C-20.34 8 -19.68 8 -19 8 C-19 7.34 -19 6.68 -19 6 C-16.59 4.8 -14.17 3.61 -11.75 2.44 C-11.07 2.1 -10.39 1.75 -9.68 1.4 C-5.72 -0.5 -4.41 -1.1 0 0 Z " fill="#337C3E" transform="translate(83,138)"/>
<path d="M0 0 C5.73 2.19 9.25 7.61 13.06 12.25 C17.72 17.86 22.68 23.01 27.92 28.08 C29.94 30.12 29.94 30.12 29.94 31.12 C25.33 31.38 22.29 30.72 18.12 28.75 C17.17 28.31 16.21 27.87 15.23 27.41 C12.94 26.12 12.94 26.12 11.94 24.12 C9.63 23.07 7.29 22.07 4.94 21.12 C5.21 24.31 5.68 27.17 6.94 30.12 C10.45 33 14.58 34.11 18.94 35.12 C18.94 35.78 18.94 36.44 18.94 37.12 C20.21 36.63 20.21 36.63 21.5 36.12 C25.15 35.06 28.16 34.97 31.94 35.12 C31.94 39.09 31.94 43.05 31.94 47.12 C31.28 46.47 30.62 45.81 29.94 45.12 C29.61 45.45 29.28 45.78 28.94 46.12 C26.59 46.52 24.23 46.87 21.88 47.19 C20.58 47.36 19.29 47.54 17.96 47.72 C16.47 47.92 16.47 47.92 14.94 48.12 C15.3 53.25 18.15 56.04 21.56 59.56 C22.11 60.14 22.65 60.71 23.21 61.3 C29.71 68.47 29.71 68.47 37.94 73.12 C38.32 72.25 38.32 72.25 38.71 71.36 C40.07 68.88 41.58 67.32 43.62 65.38 C46.21 62.86 48.68 60.33 51 57.56 C55.23 52.63 59.89 48.13 64.52 43.58 C67.41 40.73 70.21 37.88 72.77 34.73 C75.55 31.38 76.22 31.22 80.56 30.62 C85.3 30.71 87.57 32.73 90.88 35.94 C94.65 39.93 98.32 44 101.94 48.12 C103.62 50 105.31 51.88 107 53.75 C108.31 55.21 109.62 56.67 110.94 58.12 C109.36 61.28 106.7 62.02 103.54 63.36 C96.61 65.4 90.19 63.19 83.94 60.12 C82.45 59.63 82.45 59.63 80.94 59.12 C80.94 63.09 80.94 67.05 80.94 71.12 C79.45 71.68 77.97 72.24 76.44 72.81 C69.78 75.49 64.16 78.21 59.94 84.12 C58.61 84.49 57.28 84.82 55.94 85.12 C55.28 86.11 54.62 87.11 53.94 88.12 C52.33 89.06 50.72 89.99 49.07 90.88 C45.62 92.9 42.47 95.34 39.27 97.73 C36.94 99.12 36.94 99.12 32.94 99.12 C32.94 99.78 32.94 100.44 32.94 101.12 C28.48 101.62 28.48 101.62 23.94 102.12 C24.1 93.07 27.94 86.05 31.94 78.12 C30.89 78.34 30.89 78.34 29.81 78.56 C24.07 79.69 18.79 80.35 12.94 80.12 C12.94 79.47 12.94 78.81 12.94 78.12 C12.28 78.12 11.62 78.12 10.94 78.12 C11.15 78.66 11.37 79.19 11.59 79.73 C11.87 80.44 12.15 81.15 12.44 81.88 C12.72 82.57 12.99 83.27 13.28 83.98 C13.94 86.12 13.94 86.12 13.94 90.12 C10.85 91.89 9.7 92.12 5.94 92.12 C5.94 91.14 5.94 90.14 5.94 89.12 C2.64 88.8 -0.66 88.47 -4.06 88.12 C-4.39 86.81 -4.72 85.48 -5.06 84.12 C-5.72 83.8 -6.38 83.47 -7.06 83.12 C-7.06 82.47 -7.06 81.81 -7.06 81.12 C-7.72 81.12 -8.38 81.12 -9.06 81.12 C-9.39 79.81 -9.72 78.48 -10.06 77.12 C-11.05 77.12 -12.04 77.12 -13.06 77.12 C-13.64 65.37 -13.45 51.89 -8.06 41.12 C-10.37 40.47 -12.68 39.81 -15.06 39.12 C-14.27 30.11 -13.33 21.15 -11.31 12.31 C-11.03 11.05 -10.75 9.78 -10.45 8.48 C-8.46 3.66 -5.54 0.23 0 0 Z " fill="#B1D875" transform="translate(94.0625,31.875)"/>
<path d="M0 0 C1.23 0.01 1.23 0.01 2.49 0.01 C4.49 0.03 6.5 0.04 8.5 0.06 C7.51 0.72 6.52 1.38 5.5 2.06 C5.21 3.97 4.93 5.88 4.81 7.8 C4.5 10.06 4.5 10.06 3.57 12.84 C2.36 16.49 1.58 20.16 0.88 23.94 C0.74 24.61 0.61 25.28 0.47 25.96 C-0.43 30.74 -0.57 35.2 -0.5 40.06 C-0.79 42.07 -1.1 44.07 -1.5 46.06 C-2.16 46.06 -2.82 46.06 -3.5 46.06 C-3.6 47.36 -3.71 48.66 -3.81 50 C-4.47 55.97 -6.27 61.36 -8.75 66.81 C-9.74 69.09 -9.74 69.09 -8.81 71.56 C-8.71 72.39 -8.61 73.21 -8.5 74.06 C-10.81 76.63 -10.81 76.63 -13.5 79.06 C-14.18 80.39 -14.85 81.72 -15.5 83.06 C-18.98 87.81 -23.18 91.7 -27.67 95.48 C-29.5 96.98 -29.5 96.98 -30.87 98.63 C-32.86 100.38 -33.85 100.46 -36.48 100.54 C-37.23 100.57 -37.98 100.6 -38.76 100.63 C-39.54 100.65 -40.32 100.67 -41.12 100.69 C-46.22 100.39 -46.22 100.39 -50.5 102.06 C-51.85 102.26 -53.22 102.41 -54.58 102.53 C-55.41 102.61 -56.24 102.68 -57.1 102.76 C-58.85 102.92 -60.6 103.07 -62.36 103.22 C-63.19 103.3 -64.03 103.38 -64.89 103.46 C-65.65 103.53 -66.42 103.6 -67.2 103.67 C-69.57 103.99 -69.57 103.99 -71.92 105.06 C-74.84 106.19 -77.24 106.44 -80.36 106.62 C-82.21 106.74 -82.21 106.74 -84.09 106.85 C-85.48 106.92 -86.86 106.99 -88.25 107.06 C-89.32 107.12 -89.32 107.12 -90.41 107.18 C-118.41 108.71 -146.47 109.28 -174.5 110.06 C-175 111.05 -175 111.05 -175.5 112.06 C-178.69 107.88 -180 105.36 -179.5 100.06 C-177.8 99.85 -177.8 99.85 -176.06 99.62 C-172.69 99.45 -172.69 99.45 -171.5 98.06 C-169.56 97.93 -167.61 97.86 -165.66 97.82 C-164.45 97.78 -163.24 97.75 -162 97.72 C-159.45 97.66 -156.91 97.6 -154.37 97.54 C-147.78 97.36 -141.56 96.85 -135.1 95.55 C-123.98 93.45 -112.43 93.77 -101.15 93.59 C-98.82 93.55 -96.49 93.49 -94.16 93.44 C-93.09 93.43 -93.09 93.43 -92.01 93.42 C-88.31 93.32 -85.69 92.96 -82.5 91.06 C-79.96 90.68 -79.96 90.68 -77.31 90.5 C-74.1 90.51 -74.1 90.51 -71.5 89.06 C-69.63 88.97 -67.76 88.93 -65.89 88.92 C-64.74 88.9 -63.6 88.88 -62.41 88.86 C-59.99 88.83 -57.56 88.81 -55.13 88.81 C-48.1 88.94 -48.1 88.94 -42.22 85.66 C-40.69 83.35 -39.8 81.8 -39.5 79.06 C-38.18 79.72 -36.86 80.38 -35.5 81.06 C-35.5 84.83 -35.74 85.97 -37.5 89.06 C-31.75 88.57 -31.75 88.57 -27.5 85.06 C-26.51 85.06 -25.52 85.06 -24.5 85.06 C-23.51 81.76 -22.52 78.46 -21.5 75.06 C-23.15 76.38 -24.8 77.7 -26.5 79.06 C-26.48 78.38 -26.45 77.69 -26.43 76.98 C-26.41 76.08 -26.39 75.18 -26.38 74.25 C-26.35 73.36 -26.33 72.46 -26.3 71.54 C-26.32 68.81 -26.32 68.81 -28.5 66.06 C-28.03 65.28 -27.55 64.5 -27.06 63.69 C-26.16 62.17 -25.29 60.64 -24.5 59.06 C-23.84 59.06 -23.18 59.06 -22.5 59.06 C-20.99 55.68 -20.99 55.68 -20.5 52.06 C-22.98 55.53 -22.98 55.53 -25.5 59.06 C-26.49 57.08 -26.49 57.08 -27.5 55.06 C-28.16 55.06 -28.82 55.06 -29.5 55.06 C-27.94 51.22 -25.47 48.9 -22.5 46.06 C-19.62 43.34 -19.62 43.34 -17.5 40.06 C-18.82 40.72 -20.14 41.38 -21.5 42.06 C-22.98 39.17 -23.64 37.68 -22.89 34.46 C-22.51 33.6 -22.14 32.75 -21.75 31.88 C-21.38 31.02 -21.02 30.16 -20.64 29.27 C-19.5 27.06 -19.5 27.06 -17.5 25.06 C-16.8 22.74 -16.14 20.4 -15.5 18.06 C-14.91 16.79 -14.91 16.79 -14.31 15.5 C-13.27 12.37 -13.89 10.26 -14.5 7.06 C-14.06 4.69 -14.06 4.69 -13.5 3.06 C-15.48 2.07 -15.48 2.07 -17.5 1.06 C-11.62 0.21 -5.94 -0.06 0 0 Z M-28.5 55.06 C-28.5 56.05 -28.5 57.04 -28.5 58.06 C-29.49 58.56 -29.49 58.56 -30.5 59.06 C-29.84 57.74 -29.18 56.42 -28.5 55.06 Z M-31.5 68.06 C-30.51 68.56 -30.51 68.56 -29.5 69.06 C-30.49 69.56 -30.49 69.56 -31.5 70.06 C-31.5 69.4 -31.5 68.74 -31.5 68.06 Z " fill="#BF5B42" transform="translate(261.5,233.9375)"/>
<path d="M0 0 C6.74 4.1 11.85 11.14 17 17 C18.69 18.88 20.37 20.75 22.06 22.62 C23.38 24.08 24.69 25.54 26 27 C24.42 30.15 21.76 30.89 18.61 32.23 C11.67 34.27 5.25 32.06 -1 29 C-1.99 28.67 -2.98 28.34 -4 28 C-4 31.96 -4 35.92 -4 40 C-5.49 40.56 -6.97 41.11 -8.5 41.69 C-15.16 44.36 -20.77 47.08 -25 53 C-26.33 53.36 -27.66 53.7 -29 54 C-29.66 54.99 -30.32 55.98 -31 57 C-32.61 57.94 -34.22 58.87 -35.86 59.75 C-39.32 61.77 -42.47 64.21 -45.67 66.61 C-48 68 -48 68 -52 68 C-52 68.66 -52 69.32 -52 70 C-56.45 70.5 -56.45 70.5 -61 71 C-60.74 55.86 -50.65 43.54 -40.38 33.31 C-39.81 32.76 -39.24 32.21 -38.65 31.64 C-37 30 -35.5 28.28 -34 26.5 C-29.75 21.55 -25.07 17.02 -20.42 12.46 C-17.52 9.6 -14.73 6.76 -12.16 3.6 C-8.76 -0.49 -5.14 -1.07 0 0 Z " fill="#CBEC96" transform="translate(179,63)"/>
<path d="M0 0 C4.01 1.1 6.4 4.05 9.11 7.06 C9.72 7.7 10.32 8.34 10.95 9 C12.67 10.83 14.37 12.69 16.05 14.56 C16.79 15.39 17.53 16.21 18.29 17.06 C19.4 18.32 20.5 19.6 21.58 20.88 C23.13 22.66 24.78 24.29 26.48 25.94 C29.05 28.56 29.05 28.56 29.05 30.56 C25.12 33.68 21.07 35.97 16.05 36.56 C15.06 37.06 15.06 37.06 14.05 37.56 C11.87 36.85 11.87 36.85 9.3 35.75 C5.58 34.19 1.89 32.77 -1.95 31.56 C-1.9 32.24 -1.84 32.91 -1.78 33.61 C-1.41 40.91 -1.41 40.91 -3.89 43.87 C-4.9 44.43 -5.91 44.99 -6.95 45.56 C-7.68 45.97 -8.4 46.38 -9.15 46.79 C-10.68 47.65 -12.22 48.49 -13.77 49.31 C-15.97 50.47 -15.97 50.47 -17.67 52.09 C-20.03 53.61 -21.37 53.9 -24.08 54.37 C-29.84 55.5 -34.09 58.44 -38.89 61.69 C-40.57 62.8 -42.24 63.9 -43.92 65.01 C-45.01 65.74 -45.01 65.74 -46.13 66.49 C-47.95 67.56 -47.95 67.56 -49.95 67.56 C-52.01 59.17 -48.2 50.92 -44.38 43.49 C-39.02 34.7 -31.93 27.44 -24.62 20.26 C-22.88 18.48 -21.26 16.64 -19.64 14.75 C-18.42 13.35 -17.19 11.95 -15.95 10.56 C-15.17 9.66 -14.38 8.76 -13.57 7.83 C-12.73 6.92 -11.89 6 -11.02 5.06 C-9.86 3.78 -9.86 3.78 -8.68 2.47 C-5.72 0.4 -3.62 -0.22 0 0 Z " fill="#CCED98" transform="translate(176.954833984375,-0.560546875)"/>
<path d="M0 0 C2.57 0.35 4.61 0.78 6.88 2.06 C10.89 3.84 14.92 3.36 19 2 C21.09 2.34 21.09 2.34 23.38 2.94 C28.14 4.11 28.14 4.11 33 4 C33.47 3.53 33.95 3.05 34.44 2.56 C36.68 0.32 38.93 0.43 42 0 C45.33 7.77 47.62 15.01 48.64 23.42 C48.86 25.98 48.86 25.98 50 28 C52.46 28.05 54.92 28.09 57.38 28.12 C58.07 28.14 58.77 28.16 59.49 28.18 C61.33 28.19 63.17 28.1 65 28 C65.66 27.34 66.32 26.68 67 26 C67.99 26 68.98 26 70 26 C69.09 35.08 64.4 41.24 58.25 47.62 C57.67 48.25 57.08 48.88 56.48 49.53 C52.35 53.9 47.92 57.54 43 61 C36.27 53.81 29.55 46.61 22.88 39.38 C22.39 38.85 21.91 38.33 21.41 37.8 C18.85 35.02 16.31 32.23 13.8 29.41 C13.27 28.82 12.74 28.22 12.19 27.62 C11.18 26.49 10.18 25.36 9.18 24.22 C6.11 20.82 3.21 18.8 -1 17 C-1.03 14.35 -1.05 11.71 -1.06 9.06 C-1.07 8.31 -1.08 7.55 -1.09 6.78 C-1.1 4.85 -1.05 2.92 -1 1 C-0.67 0.67 -0.34 0.34 0 0 Z " fill="#639E2A" transform="translate(176,45)"/>
<path d="M0 0 C0.75 0.2 1.5 0.41 2.27 0.62 C3.25 0.89 4.24 1.16 5.25 1.44 C6.71 1.84 6.71 1.84 8.2 2.25 C10.46 2.86 12.73 3.44 15 4 C13.94 7.89 12.24 9.82 9.31 12.44 C6.33 15.23 6.33 15.23 5.75 19.31 C6.77 22.21 6.77 22.21 9.56 23.38 C10.37 23.58 11.17 23.79 12 24 C12 24.99 12 25.98 12 27 C13.32 27 14.64 27 16 27 C16 26.34 16 25.68 16 25 C16.66 25.33 17.33 25.65 18.01 25.99 C21.66 27.22 25.01 27.22 28.81 27.12 C29.51 27.12 30.2 27.11 30.91 27.1 C32.61 27.07 34.3 27.04 36 27 C34.49 32.26 32.1 36.67 29.38 41.38 C28.95 42.11 28.53 42.85 28.1 43.61 C27.07 45.41 26.04 47.2 25 49 C24.34 48.01 23.68 47.02 23 46 C15.13 41.56 6.57 38.78 -2 36 C-2.99 37.98 -3.98 39.96 -5 42 C-5.98 41.8 -6.96 41.59 -7.96 41.38 C-16.49 39.59 -16.49 39.59 -25.12 38.44 C-28.51 38.06 -30.96 37.47 -34 36 C-34.33 37.98 -34.66 39.96 -35 42 C-36 41.52 -37 41.04 -38.04 40.54 C-41.86 38.91 -45.26 38.5 -49.44 38.31 C-50.14 38.28 -50.85 38.25 -51.57 38.21 C-62.04 37.78 -72.53 37.91 -83 38 C-83 37.34 -83 36.68 -83 36 C-86.96 36 -90.92 36 -95 36 C-95.12 26.25 -95.12 26.25 -94 24 C-91.12 24.11 -88.25 24.24 -85.38 24.38 C-84.16 24.42 -84.16 24.42 -82.93 24.47 C-78.25 24.7 -74.42 25.34 -70 27 C-65.24 28.28 -60.51 28.15 -55.62 28.12 C-54.8 28.13 -53.97 28.13 -53.12 28.14 C-48.31 28.13 -43.75 27.81 -39 27 C-39.6 21.32 -41.09 16.39 -43 11 C-38.05 11 -33.1 11 -28 11 C-28.33 14.63 -28.66 18.26 -29 22 C-27.68 22 -26.36 22 -25 22 C-25 22.66 -25 23.32 -25 24 C-18.68 26.15 -12.32 27.55 -6.06 24.62 C-2.52 21.84 -1.63 20.44 -1 16 C-0.76 13.23 -0.59 10.46 -0.44 7.69 C-0.37 6.58 -0.37 6.58 -0.31 5.44 C-0.2 3.63 -0.1 1.81 0 0 Z " fill="#63A039" transform="translate(270,106)"/>
<path d="M0 0 C-0.37 7.6 -2.58 13.24 -6 20 C-11.46 20.11 -16.62 19.92 -22 19 C-21.46 20.21 -21.46 20.21 -20.91 21.45 C-20.44 22.52 -19.98 23.59 -19.5 24.69 C-19.04 25.74 -18.57 26.8 -18.09 27.89 C-17.05 30.86 -16.77 32.89 -17 36 C-22.83 36.83 -28.49 37.19 -34.38 37.19 C-35.21 37.19 -36.04 37.19 -36.89 37.19 C-51.95 37.05 -51.95 37.05 -55 34 C-57.65 33.79 -60.28 33.62 -62.94 33.5 C-70.73 33.13 -70.73 33.13 -73 32 C-73.33 32.66 -73.66 33.32 -74 34 C-74 26.74 -74 19.48 -74 12 C-70.66 10.89 -69.31 11.36 -66.04 12.39 C-59.62 14.32 -59.62 14.32 -53 15 C-53 14.34 -53 13.68 -53 13 C-53.99 12.67 -54.98 12.34 -56 12 C-53.03 12.33 -50.06 12.66 -47 13 C-47 13.66 -47 14.32 -47 15 C-42.06 15.62 -39.71 15.15 -35.69 12.12 C-33.68 10.49 -31.83 8.83 -30 7 C-28.35 5.98 -26.68 4.97 -25 4 C-25 4.66 -25 5.32 -25 6 C-15.05 6.61 -15.05 6.61 -6 3 C-5.34 3 -4.68 3 -4 3 C-4 2.34 -4 1.68 -4 1 C-1 0 -1 0 0 0 Z " fill="#87B951" transform="translate(249,98)"/>
<path d="M0 0 C2.82 1.57 5.32 3.48 7.88 5.44 C16.24 11.61 24.96 16.89 34 22 C33.19 25.84 33.19 25.84 31.47 27.3 C25.91 30.16 22.05 30.22 16 29 C14 28.66 12 28.33 10 28 C11.25 29.9 12.5 31.79 13.75 33.69 C14.79 35.27 14.79 35.27 15.86 36.89 C17.8 39.7 19.83 42.36 22 45 C20.44 48.84 18.2 51.39 15 54 C12.19 53.81 12.19 53.81 10 53 C9.67 52.01 9.34 51.02 9 50 C5.7 50 2.4 50 -1 50 C-1 49.34 -1 48.68 -1 48 C-3.31 47.67 -5.62 47.34 -8 47 C-11.24 36.02 -13.17 25.52 -13.38 14.06 C-13.4 13.25 -13.43 12.43 -13.45 11.59 C-13.47 7.53 -13.32 5.51 -11.1 2 C-7.28 -1.64 -5.08 -1.19 0 0 Z " fill="#A1CB62" transform="translate(46,70)"/>
<path d="M0 0 C2.41 2.15 3.82 3.85 4.33 7.09 C4.43 9.55 4.4 11.98 4.31 14.44 C4.3 15.69 4.3 15.69 4.28 16.96 C4.2 21.4 3.87 25.63 3 30 C2.32 30.12 1.65 30.24 0.95 30.37 C0.06 30.53 -0.83 30.7 -1.75 30.88 C-3.07 31.12 -3.07 31.12 -4.42 31.37 C-6.99 31.9 -6.99 31.9 -9.14 33.07 C-11 34 -11 34 -14 34 C-14 34.66 -14 35.32 -14 36 C-17.3 36.66 -20.6 37.32 -24 38 C-22.59 33.89 -20.49 30.48 -18.12 26.87 C-16.84 24.89 -16.84 24.89 -16 22 C-16.65 22.22 -17.31 22.43 -17.98 22.66 C-24.91 24.77 -31.76 26.1 -39 25 C-40.36 24.04 -41.7 23.04 -43 22 C-42.47 21.69 -41.93 21.38 -41.39 21.06 C-31.14 15.05 -21.11 8.93 -11.55 1.86 C-7.26 -1.27 -5.24 -1.27 0 0 Z " fill="#AED572" transform="translate(313,70)"/>
<path d="M0 0 C5 1 5 1 7 2 C6.72 3.26 6.45 4.52 6.16 5.81 C3.86 16.59 2.31 26.97 2 38 C2.99 38 3.98 38 5 38 C5.33 39.32 5.66 40.64 6 42 C6.66 42 7.32 42 8 42 C8 42.66 8 43.32 8 44 C8.99 44.33 9.98 44.66 11 45 C11 46.32 11 47.64 11 49 C14.3 49 17.6 49 21 49 C21.33 49.66 21.66 50.32 22 51 C21.5 51.99 21.5 51.99 21 53 C22.31 52.72 23.63 52.42 24.94 52.12 C25.67 51.96 26.4 51.8 27.15 51.63 C29.21 51.17 29.21 51.17 30 49 C30.7 50.26 31.38 51.54 32.06 52.81 C32.45 53.52 32.83 54.23 33.22 54.96 C34 57 34 57 33 60 C24.08 65.79 13.26 66.88 3 65 C1.44 63.44 1.69 61.8 1.5 59.63 C1.42 58.75 1.34 57.86 1.25 56.95 C1.17 56.02 1.09 55.09 1 54.12 C0.84 52.29 0.67 50.46 0.5 48.63 C0.43 47.82 0.36 47 0.28 46.16 C0.05 43.82 0.05 43.82 -1 41 C-2.46 41.31 -3.92 41.62 -5.38 41.94 C-6.19 42.11 -7 42.29 -7.84 42.46 C-10.03 42.92 -10.03 42.92 -12 44 C-13.47 42.11 -14.92 40.21 -16.38 38.31 C-16.79 37.78 -17.2 37.25 -17.62 36.71 C-19.99 33.6 -21.75 30.71 -23 27 C-22.01 27.12 -21.02 27.24 -20 27.36 C-18.67 27.49 -17.33 27.62 -16 27.75 C-14.7 27.89 -13.4 28.03 -12.06 28.17 C-7.12 28.24 -7.12 28.24 0 24 C0 16.08 0 8.16 0 0 Z " fill="#8CBB48" transform="translate(79,71)"/>
<path d="M0 0 C-4.63 6.72 -10.11 12.31 -15.94 18 C-21.87 23.81 -27.65 29.64 -33 36 C-33.51 36.6 -34.01 37.2 -34.53 37.82 C-35.69 39.21 -36.85 40.6 -38 42 C-41.33 41.41 -43.05 40.36 -45.5 38.05 C-46.14 37.45 -46.78 36.85 -47.44 36.23 C-48.1 35.6 -48.76 34.96 -49.44 34.31 C-50.09 33.7 -50.75 33.09 -51.42 32.46 C-61.82 22.62 -61.82 22.62 -62.31 18.12 C-62.21 17.42 -62.11 16.72 -62 16 C-60.41 15.8 -60.41 15.8 -58.79 15.6 C-57.4 15.42 -56.01 15.24 -54.62 15.06 C-53.93 14.98 -53.23 14.89 -52.51 14.8 C-48.63 14.34 -48.63 14.34 -45 13 C-44.34 14.98 -43.68 16.96 -43 19 C-35.2 19 -28.97 14.98 -22.56 11 C-21.85 10.56 -21.14 10.12 -20.41 9.67 C-17.13 7.58 -15.21 6.31 -13 3 C-10.98 1.8 -10.98 1.8 -8.62 0.75 C-7.47 0.22 -7.47 0.22 -6.29 -0.33 C-3.7 -1.09 -2.54 -0.74 0 0 Z " fill="#97C24C" transform="translate(170,63)"/>
<path d="M0 0 C2.25 1.94 2.25 1.94 4 4 C4 4.66 4 5.32 4 6 C0.08 9.12 -3.98 11.41 -9 12 C-9.66 12.33 -10.32 12.66 -11 13 C-13.17 12.29 -13.17 12.29 -15.75 11.19 C-19.46 9.63 -23.16 8.21 -27 7 C-26.94 7.68 -26.88 8.35 -26.82 9.05 C-26.45 16.35 -26.45 16.35 -28.94 19.31 C-29.95 19.87 -30.96 20.43 -32 21 C-32.72 21.41 -33.45 21.81 -34.2 22.23 C-35.73 23.09 -37.27 23.93 -38.82 24.75 C-41.02 25.91 -41.02 25.91 -42.71 27.53 C-45.07 29.05 -46.41 29.34 -49.13 29.8 C-54.88 30.94 -59.14 33.88 -63.94 37.12 C-65.61 38.24 -67.29 39.34 -68.96 40.45 C-70.06 41.18 -70.06 41.18 -71.17 41.93 C-73 43 -73 43 -75 43 C-75.75 39.34 -76.24 36.58 -75 33 C-74.34 33 -73.68 33 -73 33 C-72.79 32.24 -72.59 31.47 -72.38 30.69 C-70.53 27.08 -68.7 26.54 -65 25 C-63.89 24.5 -62.77 24.01 -61.62 23.5 C-59.79 22.74 -57.95 21.98 -56.06 21.39 C-51.01 19.77 -47.94 17.37 -44.08 13.79 C-39.24 9.63 -34.49 6.63 -28 7 C-27.67 4.69 -27.34 2.38 -27 0 C-24.13 0.45 -21.28 0.94 -18.45 1.58 C-17.56 1.78 -16.67 1.98 -15.75 2.19 C-14.9 2.39 -14.05 2.59 -13.17 2.79 C-12.46 2.86 -11.74 2.93 -11 3 C-10.34 2.34 -9.68 1.68 -9 1 C-5.65 -0.68 -3.51 -1.58 0 0 Z " fill="#B9DE7F" transform="translate(202,24)"/>
<path d="M0 0 C4.57 3.37 5.18 7.47 6.25 12.75 C6.42 13.54 6.6 14.34 6.77 15.15 C7.2 17.1 7.6 19.05 8 21 C7.22 21.27 6.43 21.54 5.62 21.81 C2.72 22.85 2.72 22.85 1 26 C-0.69 26.98 -2.39 27.95 -4.11 28.88 C-7.03 30.61 -9.45 32.76 -12 35 C-12 32.69 -12 30.38 -12 28 C-14.35 28.6 -16.69 29.27 -19 30 C-19.33 30.66 -19.66 31.32 -20 32 C-23.48 34.37 -26.63 34.21 -30.75 34.12 C-31.92 34.11 -33.09 34.09 -34.3 34.07 C-35.19 34.05 -36.08 34.02 -37 34 C-36.42 30.53 -35.3 28.96 -32.75 26.57 C-31.75 25.6 -31.75 25.6 -30.73 24.62 C-29.66 23.6 -29.66 23.6 -28.56 22.56 C-22.38 16.57 -16.99 10.49 -12.02 3.48 C-8.36 -1.02 -5.55 -1.62 0 0 Z " fill="#ABD474" transform="translate(261,33)"/>
<path d="M0 0 C0.33 0.99 0.66 1.98 1 3 C1.66 3 2.32 3 3 3 C3 3.66 3 4.32 3 5 C5.47 5.99 5.47 5.99 8 7 C8 7.66 8 8.32 8 9 C8.66 9 9.32 9 10 9 C10 9.66 10 10.32 10 11 C11.98 11 13.96 11 16 11 C16 11.99 16 12.98 16 14 C16.66 14 17.32 14 18 14 C18 11.69 18 9.38 18 7 C18.66 7 19.32 7 20 7 C20 7.66 20 8.32 20 9 C20.74 9.12 21.48 9.25 22.25 9.38 C24.8 9.95 26.73 10.74 29 12 C29 12.66 29 13.32 29 14 C32.3 14.33 35.6 14.66 39 15 C38.5 14.01 38.5 14.01 38 13 C40.66 12.61 42.39 12.59 44.67 14.11 C46.15 15.36 47.58 16.68 49 18 C47.89 20.42 47.89 20.42 46 23 C43.14 23.93 43.14 23.93 39.81 24.31 C38.08 24.52 38.08 24.52 36.32 24.73 C32.51 25.04 28.82 25.15 25 25 C25 24.34 25 23.68 25 23 C24.34 23 23.68 23 23 23 C23.22 23.53 23.43 24.06 23.66 24.61 C23.93 25.32 24.21 26.02 24.5 26.75 C24.78 27.45 25.06 28.14 25.34 28.86 C26 31 26 31 26 35 C22.91 36.76 21.77 37 18 37 C18 36.01 18 35.02 18 34 C14.7 33.67 11.4 33.34 8 33 C7.67 31.68 7.34 30.36 7 29 C6.34 28.67 5.68 28.34 5 28 C5 27.34 5 26.68 5 26 C4.34 26 3.68 26 3 26 C2.67 24.68 2.34 23.36 2 22 C1.01 22 0.02 22 -1 22 C-1.03 19.46 -1.05 16.92 -1.06 14.38 C-1.07 13.66 -1.08 12.95 -1.09 12.21 C-1.11 8.03 -0.83 4.13 0 0 Z " fill="#9FCA5F" transform="translate(82,87)"/>
<path d="M0 0 C0 4.29 0 8.58 0 13 C-1.09 13.31 -2.19 13.62 -3.31 13.94 C-5.55 14.58 -7.79 15.26 -10 16 C-12.35 16.16 -14.71 16.28 -17.06 16.38 C-31.44 17.08 -45.76 18.97 -60 21 C-60 15.72 -60 10.44 -60 5 C-59.67 5 -59.34 5 -59 5 C-59 6.65 -59 8.3 -59 10 C-51.45 9.05 -43.96 8.07 -36.51 6.5 C-27.07 4.61 -17.61 3.6 -8 3 C-8 2.34 -8 1.68 -8 1 C-1.12 0 -1.12 0 0 0 Z " fill="#78B155" transform="translate(175,133)"/>
<path d="M0 0 C2.57 0.35 4.61 0.78 6.88 2.06 C10.89 3.84 14.92 3.36 19 2 C21.09 2.34 21.09 2.34 23.38 2.94 C28.14 4.11 28.14 4.11 33 4 C33.47 3.53 33.95 3.05 34.44 2.56 C36.68 0.32 38.93 0.43 42 0 C42.84 2.12 43.67 4.25 44.5 6.38 C44.96 7.56 45.43 8.74 45.91 9.96 C47 13 47 13 47 15 C43.55 17.09 43.55 17.09 41.19 16.69 C40.47 16.46 39.74 16.23 39 16 C36.68 15.61 34.34 15.27 32 15 C31.67 15.33 31.34 15.66 31 16 C32.98 16.66 34.96 17.32 37 18 C34.04 19.72 32.26 20.22 28.88 19.75 C28.09 19.64 27.31 19.54 26.5 19.43 C23.93 18.99 21.37 18.47 18.81 17.94 C14.04 16.95 9.98 16.15 5.38 18.12 C3 19 3 19 0.85 18.05 C0.24 17.71 -0.37 17.36 -1 17 C-1.03 14.35 -1.05 11.71 -1.06 9.06 C-1.07 8.31 -1.08 7.55 -1.09 6.78 C-1.1 4.85 -1.05 2.92 -1 1 C-0.67 0.67 -0.34 0.34 0 0 Z " fill="#79AF43" transform="translate(176,45)"/>
<path d="M0 0 C1.94 0.39 1.94 0.39 4.38 2.21 C6.63 6.81 6.76 11.32 6.94 16.39 C5.95 16.89 5.95 16.89 4.94 17.39 C4.94 18.38 4.94 19.37 4.94 20.39 C3.01 22.05 1.13 23.51 -0.94 24.96 C-5.18 27.96 -5.18 27.96 -9.06 31.39 C-8.92 29.96 -8.77 28.52 -8.62 27.08 C-8.54 26.28 -8.46 25.48 -8.38 24.66 C-8.06 22.39 -8.06 22.39 -7.06 19.39 C-8.16 19.87 -9.25 20.34 -10.38 20.83 C-12.6 21.8 -14.76 22.63 -17.06 23.39 C-17.06 24.05 -17.06 24.71 -17.06 25.39 C-18.2 25.66 -19.33 25.93 -20.5 26.21 C-21.68 26.6 -22.85 26.99 -24.06 27.39 C-24.39 28.38 -24.72 29.37 -25.06 30.39 C-29.02 30.89 -29.02 30.89 -33.06 31.39 C-29.69 27.42 -26.26 23.5 -22.75 19.64 C-18.67 15.14 -14.81 10.48 -11.01 5.74 C-6 -0.3 -6 -0.3 0 0 Z " fill="#BADE80" transform="translate(259.0625,69.60546875)"/>
<path d="M0 0 C2.94 1.65 5.57 3.65 8.25 5.69 C14.62 10.38 20.89 14.5 28 18 C27.67 18.66 27.34 19.32 27 20 C19.41 19.01 11.82 18.02 4 17 C4.99 18.98 5.98 20.96 7 23 C6.67 23.99 6.34 24.98 6 26 C3.69 25.34 1.38 24.68 -1 24 C-1 23.34 -1 22.68 -1 22 C-2.32 22 -3.64 22 -5 22 C-5 21.34 -5 20.68 -5 20 C-8.29 19.2 -9.71 18.9 -13 20 C-13.11 17.6 -13.19 15.21 -13.25 12.81 C-13.28 12.14 -13.32 11.47 -13.35 10.77 C-13.42 7.11 -13.12 5.18 -11.11 2.07 C-7.31 -1.66 -5.12 -1.21 0 0 Z " fill="#BCE081" transform="translate(46,70)"/>
<path d="M0 0 C0.33 0 0.66 0 1 0 C1.03 2.81 1.05 5.62 1.06 8.44 C1.07 9.24 1.08 10.04 1.09 10.87 C1.1 12.91 1.05 14.96 1 17 C0 18 0 18 -3.56 18.06 C-4.7 18.04 -5.83 18.02 -7 18 C-7 18.66 -7 19.32 -7 20 C-13.07 20.96 -19.14 21.89 -25.22 22.73 C-26.13 22.86 -27.05 22.98 -27.99 23.12 C-29.79 23.37 -31.59 23.61 -33.4 23.86 C-38.32 24.54 -43.12 25.41 -47.95 26.6 C-51.32 27.26 -54.57 27.12 -58 27 C-58 24.03 -58 21.06 -58 18 C-57.67 19.32 -57.34 20.64 -57 22 C-56.34 21.67 -55.68 21.34 -55 21 C-52.73 20.68 -50.46 20.39 -48.19 20.12 C-34.72 18.86 -34.72 18.86 -23 13 C-22.13 12.48 -21.27 11.97 -20.38 11.44 C-17.92 10.08 -17.92 10.08 -16 8 C-14.3 7.25 -12.6 6.5 -10.88 5.8 C-9.13 5.05 -7.43 4.19 -5.75 3.31 C-3 2 -3 2 0 2 C0 1.34 0 0.68 0 0 Z " fill="#A6D06B" transform="translate(174,116)"/>
<path d="M0 0 C2.75 1.02 5.48 2.07 8.19 3.19 C8.19 4.84 8.19 6.49 8.19 8.19 C9.84 8.52 11.49 8.85 13.19 9.19 C13.19 10.18 13.19 11.17 13.19 12.19 C14.18 12.52 15.17 12.85 16.19 13.19 C16.52 14.18 16.85 15.17 17.19 16.19 C18.18 16.52 19.17 16.85 20.19 17.19 C20.19 19.17 20.19 21.15 20.19 23.19 C21.18 23.19 22.17 23.19 23.19 23.19 C23.19 24.51 23.19 25.83 23.19 27.19 C24.18 27.52 25.17 27.85 26.19 28.19 C28.3 21.82 29.65 15.88 30.19 9.19 C31.51 9.52 32.83 9.85 34.19 10.19 C34.19 10.85 34.19 11.51 34.19 12.19 C38.48 12.19 42.77 12.19 47.19 12.19 C45.24 16.08 42.99 18.86 40.06 22 C39.33 22.79 39.33 22.79 38.59 23.6 C34.7 27.76 30.61 31.59 26.19 35.19 C23.07 32.92 20.51 30.5 18.03 27.58 C15.44 24.58 12.78 21.68 10.04 18.83 C9 17.74 9 17.74 7.93 16.64 C6.5 15.15 5.06 13.67 3.62 12.19 C2.93 11.47 2.25 10.76 1.54 10.02 C0.92 9.38 0.3 8.73 -0.34 8.08 C-1.91 6.06 -2.27 4.65 -2.81 2.19 C-3.47 1.53 -4.13 0.87 -4.81 0.19 C-2.81 -0.81 -2.81 -0.81 0 0 Z " fill="#51932C" transform="translate(193.8125,70.8125)"/>
<path d="M0 0 C1.13 0.91 2.26 1.83 3.38 2.75 C4 3.26 4.63 3.77 5.27 4.3 C7.08 6.08 8 7.68 9 10 C8.38 10.25 7.76 10.5 7.12 10.75 C4.85 11.79 4.85 11.79 4.3 13.91 C2.34 17.06 -0.55 17.69 -3.94 18.75 C-4.6 18.97 -5.27 19.18 -5.96 19.41 C-11.68 21.15 -17.03 21.56 -23 21 C-23.98 18.61 -24.96 16.21 -25.94 13.81 C-26.22 13.14 -26.49 12.47 -26.78 11.77 C-28.23 8.2 -29.41 4.84 -30 1 C-27.69 1.33 -25.38 1.66 -23 2 C-23 2.66 -23 3.32 -23 4 C-22.31 3.97 -21.63 3.93 -20.92 3.89 C-20.02 3.87 -19.12 3.84 -18.19 3.81 C-17.29 3.78 -16.4 3.74 -15.48 3.71 C-12.54 4.05 -11.89 4.83 -10 7 C-6.75 7 -5.72 5.74 -3.31 3.5 C-2.55 2.67 -1.79 1.85 -1 1 C-0.67 0.67 -0.34 0.34 0 0 Z " fill="#87B640" transform="translate(68,116)"/>
<path d="M0 0 C2.88 2.11 3.85 3.58 5.06 6.94 C5 10 5 10 2.94 12.62 C-0.53 15.42 -4.01 18 -8 20 C-8 19.01 -8 18.02 -8 17 C-9.45 17.68 -9.45 17.68 -10.94 18.38 C-15.17 20.2 -19.49 21.13 -24 22 C-24 22.66 -24 23.32 -24 24 C-29.62 27 -29.62 27 -33 27 C-32.18 26.21 -31.36 25.42 -30.51 24.61 C-23.7 18 -17.66 11.3 -12.12 3.58 C-8.39 -0.96 -5.65 -1.65 0 0 Z " fill="#BFE386" transform="translate(261,33)"/>
<path d="M0 0 C2.22 3.33 2.45 5.2 2.94 9.12 C3.62 14.05 4.62 18.47 6.41 23.1 C7 25 7 25 7 29 C2.84 27.33 -0.16 24.33 -3.38 21.31 C-3.95 20.77 -4.53 20.23 -5.12 19.68 C-15.93 9.47 -15.93 9.47 -16.14 5.31 C-16.09 4.55 -16.05 3.78 -16 3 C-14.39 2.8 -14.39 2.8 -12.75 2.6 C-11.36 2.42 -9.96 2.24 -8.56 2.06 C-7.86 1.98 -7.15 1.89 -6.42 1.8 C-2.91 1.62 -2.91 1.62 0 0 Z " fill="#408B4D" transform="translate(124,76)"/>
<path d="M0 0 C5.89 2.09 9.65 7.91 13.56 12.62 C17.3 17.12 17.3 17.12 21.34 21.34 C23 23.06 23 23.06 23 25.06 C21.02 24.73 19.04 24.4 17 24.06 C17 23.4 17 22.74 17 22.06 C16.17 21.84 15.35 21.61 14.5 21.38 C11.57 20.28 9.56 19.2 7 17.5 C3.69 15.33 1.01 14.36 -3 14.06 C-3.33 12.74 -3.66 11.42 -4 10.06 C-6.97 9.57 -6.97 9.57 -10 9.06 C-8.39 3.79 -5.85 0.12 0 0 Z " fill="#C1E488" transform="translate(94,31.9375)"/>
<path d="M0 0 C3.8 1.42 5.16 2.7 7.19 6.19 C7.19 7.51 7.19 8.83 7.19 10.19 C6.48 10.39 5.77 10.6 5.04 10.81 C4.12 11.08 3.2 11.35 2.25 11.62 C0.88 12.03 0.88 12.03 -0.53 12.43 C-2.75 12.98 -2.75 12.98 -3.81 14.19 C-5.74 14.41 -7.67 14.63 -9.61 14.81 C-11.9 15.12 -11.9 15.12 -14.21 16.18 C-17.09 17.3 -19.55 17.59 -22.62 17.81 C-23.6 17.89 -24.58 17.96 -25.58 18.04 C-26.69 18.11 -26.69 18.11 -27.81 18.19 C-26.46 14.13 -23.79 13 -20.31 10.88 C-19.03 10.08 -17.75 9.29 -16.46 8.49 C-15.84 8.1 -15.21 7.71 -14.57 7.31 C-12.26 5.83 -10.08 4.19 -7.88 2.56 C-4.8 0.51 -3.88 0.19 0 0 Z " fill="#C1E589" transform="translate(309.8125,68.8125)"/>
<path d="M0 0 C0.53 0.28 1.06 0.55 1.61 0.84 C2.32 1.2 3.02 1.56 3.75 1.94 C4.79 2.48 4.79 2.48 5.86 3.03 C7.9 3.96 9.81 4.53 12 5 C12 5.66 12 6.32 12 7 C12.85 6.67 13.69 6.34 14.56 6 C18.21 4.94 21.22 4.85 25 5 C25 8.96 25 12.92 25 17 C24.34 16.34 23.68 15.68 23 15 C22.67 15.33 22.34 15.66 22 16 C18.41 16.5 14.82 16.9 11.22 17.3 C7.72 17.67 7.72 17.67 6 21 C4.99 18.25 3.99 15.5 3 12.75 C2.71 11.97 2.43 11.2 2.13 10.39 C1.73 9.26 1.73 9.26 1.31 8.11 C0.94 7.07 0.94 7.07 0.55 6.01 C0 4 0 4 0 0 Z " fill="#80B762" transform="translate(101,62)"/>
<path d="M0 0 C0.5 1.98 0.5 1.98 1 4 C-4.5 6.65 -10.44 7.01 -16.43 7.77 C-20.5 8.32 -24.19 8.95 -28 10.52 C-32.62 12.4 -37.2 12.78 -42.12 13.19 C-43.43 13.31 -43.43 13.31 -44.75 13.44 C-49.18 13.84 -53.55 14.09 -58 14 C-58.33 14.99 -58.66 15.98 -59 17 C-59 13.04 -59 9.08 -59 5 C-58.67 5 -58.34 5 -58 5 C-58 6.65 -58 8.3 -58 10 C-50.45 9.05 -42.96 8.07 -35.51 6.5 C-26.07 4.61 -16.61 3.6 -7 3 C-7 2.34 -7 1.68 -7 1 C-3.53 0.5 -3.53 0.5 0 0 Z " fill="#8EC061" transform="translate(174,133)"/>
<path d="M0 0 C1.32 0.33 2.64 0.66 4 1 C4 1.66 4 2.32 4 3 C8.29 3 12.58 3 17 3 C15.05 6.9 12.8 9.67 9.88 12.81 C9.39 13.34 8.9 13.87 8.4 14.41 C4.51 18.57 0.42 22.41 -4 26 C-5.48 22.14 -4.45 19.63 -3.12 15.81 C-1.37 10.45 -0.38 5.62 0 0 Z " fill="#4C9450" transform="translate(224,80)"/>
<path d="M0 0 C-0.75 7.62 -0.75 7.62 -3 11 C-5.06 11.62 -5.06 11.62 -7 12 C-7.33 12.33 -7.66 12.66 -8 13 C-10.7 13.07 -13.37 13.09 -16.06 13.06 C-17.2 13.06 -17.2 13.06 -18.36 13.05 C-20.24 13.04 -22.12 13.02 -24 13 C-24.33 10.69 -24.66 8.38 -25 6 C-24.11 5.94 -23.22 5.88 -22.3 5.82 C-20.54 5.69 -20.54 5.69 -18.75 5.56 C-17.59 5.48 -16.43 5.4 -15.23 5.32 C-11.53 5.01 -11.53 5.01 -8 4 C-7.67 3.01 -7.34 2.02 -7 1 C-4 0 -4 0 0 0 Z " fill="#8ABE68" transform="translate(249,61)"/>
<path d="M0 0 C0.66 0.66 1.32 1.32 2 2 C4.55 2.2 6.96 2.28 9.5 2.25 C10.53 2.26 10.53 2.26 11.59 2.27 C15.75 2.38 15.75 2.38 19 0 C19.99 0 20.98 0 22 0 C21.41 4.85 20.02 8.61 18 13 C11.07 12.5 11.07 12.5 4 12 C4 11.34 4 10.68 4 10 C2.68 9.67 1.36 9.34 0 9 C0 6.03 0 3.06 0 0 Z " fill="#6CAA5A" transform="translate(224,71)"/>
<path d="M0 0 C1.24 3.71 0.57 4.68 -0.94 8.19 C-1.62 9.78 -2.3 11.36 -3 13 C-8.61 13 -14.22 13 -20 13 C-24 6.16 -24 6.16 -25 4 C-24.67 3.34 -24.34 2.68 -24 2 C-23.07 2.33 -22.14 2.66 -21.19 3 C-15.77 4.52 -9.23 5.42 -3.96 3.1 C-2.14 1.93 -2.14 1.93 0 0 Z " fill="#71AE5C" transform="translate(246,105)"/>
<path d="M0 0 C0 5.28 0 10.56 0 16 C-0.66 15.01 -1.32 14.02 -2 13 C-3.46 13.31 -4.92 13.62 -6.38 13.94 C-7.19 14.11 -8 14.29 -8.84 14.46 C-11.03 14.92 -11.03 14.92 -13 16 C-15.64 12.37 -18.28 8.74 -21 5 C-20.67 4.34 -20.34 3.68 -20 3 C-18.97 3.33 -17.94 3.66 -16.88 4 C-13.52 4.97 -10.51 5.17 -7 5 C-6.67 4.01 -6.34 3.02 -6 2 C-1.79 0 -1.79 0 0 0 Z " fill="#6FAC5B" transform="translate(80,99)"/>
<path d="M0 0 C1.73 0.47 3.46 0.95 5.25 1.44 C8.49 2.33 11.73 3.2 15 4 C13.53 9 10.59 11.8 6.94 15.31 C6.11 16.14 6.11 16.14 5.26 16.98 C1.15 21 1.15 21 0 21 C0 14.07 0 7.14 0 0 Z " fill="#60A254" transform="translate(270,106)"/>
<path d="M0 0 C0.33 0.66 0.66 1.32 1 2 C0 4.38 0 4.38 -1.44 7.12 C-1.91 8.04 -2.38 8.95 -2.87 9.88 C-3.24 10.58 -3.62 11.28 -4 12 C-6.27 11.99 -8.54 11.94 -10.81 11.88 C-12.08 11.85 -13.34 11.83 -14.64 11.8 C-18 11 -18 11 -19.95 8.2 C-21 5 -21 5 -21 1 C-20.34 1 -19.68 1 -19 1 C-19 1.66 -19 2.32 -19 3 C-12.73 2.01 -6.46 1.02 0 0 Z " fill="#6AA95A" transform="translate(126,109)"/>
<path d="M0 0 C1.33 0.71 1.33 0.71 2.69 1.44 C9.56 4.68 16.53 4.55 23.94 3.38 C24.95 3.25 25.96 3.13 27 3 C27.66 3.66 28.32 4.32 29 5 C24.52 10.25 19.58 10.35 13 11 C10.3 11.12 7.7 11.1 5 11 C5 10.34 5 9.68 5 9 C4.01 9.33 3.02 9.66 2 10 C-0.09 6.6 -0.18 3.95 0 0 Z " fill="#83B965" transform="translate(102,101)"/>
<path d="M0 0 C4.95 0 9.9 0 15 0 C14.11 4.47 13.13 6.94 10.94 10.81 C10.39 11.79 9.84 12.76 9.28 13.77 C8.86 14.51 8.43 15.24 8 16 C7.01 16 6.02 16 5 16 C4.16 13.71 3.33 11.42 2.5 9.12 C2.14 8.15 2.14 8.15 1.78 7.15 C0 2.23 0 2.23 0 0 Z " fill="#519750" transform="translate(227,117)"/>
<path d="M0 0 C2 3 2 3 2 7 C1.34 7 0.68 7 0 7 C0 7.66 0 8.32 0 9 C-2.29 9.22 -4.58 9.43 -6.88 9.62 C-8.15 9.74 -9.43 9.86 -10.74 9.98 C-11.82 9.98 -12.89 9.99 -14 10 C-16 8 -16 8 -16.12 5.38 C-16.08 4.59 -16.04 3.81 -16 3 C-14.39 2.8 -14.39 2.8 -12.75 2.6 C-11.36 2.42 -9.96 2.24 -8.56 2.06 C-7.86 1.98 -7.15 1.89 -6.42 1.8 C-2.91 1.62 -2.91 1.62 0 0 Z " fill="#5EA156" transform="translate(124,76)"/>
<path d="M0 0 C0.33 0 0.66 0 1 0 C1.9 3.84 2.11 7.38 2.06 11.31 C2.05 12.38 2.04 13.45 2.04 14.55 C2.02 15.36 2.01 16.17 2 17 C-2.18 13.49 -6.2 9.92 -10 6 C-9.67 5.01 -9.34 4.02 -9 3 C-4.55 2.5 -4.55 2.5 0 2 C0 1.34 0 0.68 0 0 Z " fill="#4D944E" transform="translate(78,110)"/>
<path d="M0 0 C6.04 5 11.56 10.43 17.09 15.99 C18.04 16.95 19 17.9 19.95 18.86 C22.44 21.35 24.93 23.85 27.41 26.35 C29.96 28.9 32.51 31.45 35.06 34.01 C40.04 39 45.02 44 50 49 C47 49 47 49 44.99 47.33 C43.84 46.16 43.84 46.16 42.67 44.96 C41.8 44.08 40.93 43.2 40.03 42.29 C39.57 41.82 39.1 41.34 38.63 40.85 C37.18 39.37 35.72 37.89 34.26 36.42 C30.64 32.75 27.03 29.07 23.43 25.4 C20.38 22.29 17.33 19.19 14.26 16.1 C12.83 14.64 11.4 13.17 9.97 11.71 C8.66 10.39 8.66 10.39 7.33 9.04 C6.18 7.87 6.18 7.87 5.01 6.67 C3.05 4.68 3.05 4.68 0 5 C0 3.35 0 1.7 0 0 Z " fill="#F6927D" transform="translate(66,234)"/>
<path d="M0 0 C2.47 0.99 2.47 0.99 5 2 C5 2.66 5 3.32 5 4 C5.66 4 6.32 4 7 4 C5.55 7.44 3.72 9.36 0.88 11.75 C-0.21 12.67 -0.21 12.67 -1.32 13.61 C-1.87 14.07 -2.43 14.53 -3 15 C-4.43 11.21 -3.51 8.93 -2.06 5.25 C-1.49 3.77 -1.49 3.77 -0.91 2.27 C-0.61 1.52 -0.31 0.77 0 0 Z " fill="#34814A" transform="translate(223,91)"/>
<path d="M0 0 C3.96 1.98 3.96 1.98 8 4 C6.19 7.61 5.34 8.84 2.38 11.25 C1.74 11.77 1.11 12.29 0.46 12.83 C-0.02 13.21 -0.5 13.6 -1 14 C-1.03 12.23 -1.05 10.46 -1.06 8.69 C-1.07 7.7 -1.09 6.72 -1.1 5.7 C-1 3 -1 3 0 0 Z " fill="#47904C" transform="translate(271,113)"/>
</svg>
